<svg width="16" height="16" viewBox="0 0 16 16" fill="none" xmlns="http://www.w3.org/2000/svg">
<path d="M12.3333 2.33333H11V1.66667C11 1.48986 10.9298 1.32029 10.8047 1.19526C10.6797 1.07024 10.5101 1 10.3333 1C10.1565 1 9.98695 1.07024 9.86193 1.19526C9.7369 1.32029 9.66667 1.48986 9.66667 1.66667V2.33333H5.66667V1.66667C5.66667 1.48986 5.59643 1.32029 5.4714 1.19526C5.34638 1.07024 5.17681 1 5 1C4.82319 1 4.65362 1.07024 4.5286 1.19526C4.40357 1.32029 4.33333 1.48986 4.33333 1.66667V2.33333H3C2.46957 2.33333 1.96086 2.54405 1.58579 2.91912C1.21071 3.29419 1 3.8029 1 4.33333V12.3333C1 12.8638 1.21071 13.3725 1.58579 13.7475C1.96086 14.1226 2.46957 14.3333 3 14.3333H12.3333C12.8638 14.3333 13.3725 14.1226 13.7475 13.7475C14.1226 13.3725 14.3333 12.8638 14.3333 12.3333V4.33333C14.3333 3.8029 14.1226 3.29419 13.7475 2.91912C13.3725 2.54405 12.8638 2.33333 12.3333 2.33333ZM13 12.3333C13 12.5101 12.9298 12.6797 12.8047 12.8047C12.6797 12.9298 12.5101 13 12.3333 13H3C2.82319 13 2.65362 12.9298 2.5286 12.8047C2.40357 12.6797 2.33333 12.5101 2.33333 12.3333V7.66667H13V12.3333ZM13 6.33333H2.33333V4.33333C2.33333 4.15652 2.40357 3.98695 2.5286 3.86193C2.65362 3.7369 2.82319 3.66667 3 3.66667H4.33333V4.33333C4.33333 4.51014 4.40357 4.67971 4.5286 4.80474C4.65362 4.92976 4.82319 5 5 5C5.17681 5 5.34638 4.92976 5.4714 4.80474C5.59643 4.67971 5.66667 4.51014 5.66667 4.33333V3.66667H9.66667V4.33333C9.66667 4.51014 9.7369 4.67971 9.86193 4.80474C9.98695 4.92976 10.1565 5 10.3333 5C10.5101 5 10.6797 4.92976 10.8047 4.80474C10.9298 4.67971 11 4.51014 11 4.33333V3.66667H12.3333C12.5101 3.66667 12.6797 3.7369 12.8047 3.86193C12.9298 3.98695 13 4.15652 13 4.33333V6.33333Z" fill="#3A59FF"/>
</svg>
