<svg width="9" height="9" viewBox="0 0 9 9" fill="none" xmlns="http://www.w3.org/2000/svg">
<path fill-rule="evenodd" clip-rule="evenodd" d="M4.5 8.4C6.65391 8.4 8.4 6.65391 8.4 4.5C8.4 2.34609 6.65391 0.6 4.5 0.6C2.34609 0.6 0.6 2.34609 0.6 4.5C0.6 6.65391 2.34609 8.4 4.5 8.4ZM4.5 9C6.98528 9 9 6.98528 9 4.5C9 2.01472 6.98528 0 4.5 0C2.01472 0 0 2.01472 0 4.5C0 6.98528 2.01472 9 4.5 9Z" fill="#C3C3C3"/>
<path d="M4.2 3.9C4.2 3.73431 4.33431 3.6 4.5 3.6C4.66569 3.6 4.8 3.73431 4.8 3.9V6.9C4.8 7.06569 4.66569 7.2 4.5 7.2C4.33431 7.2 4.2 7.06569 4.2 6.9V3.9Z" fill="#C3C3C3"/>
<path d="M4.2 2.7C4.2 2.53431 4.33431 2.4 4.5 2.4C4.66569 2.4 4.8 2.53431 4.8 2.7C4.8 2.86569 4.66569 3 4.5 3C4.33431 3 4.2 2.86569 4.2 2.7Z" fill="#C3C3C3"/>
</svg>
