<svg width="30" height="30" viewBox="0 0 30 30" fill="none" xmlns="http://www.w3.org/2000/svg">
<circle cx="15" cy="15" r="15" fill="white"/>
<path d="M19.7 10.2733C19.0888 9.65591 18.3608 9.1664 17.5584 8.83333C16.7561 8.50025 15.8954 8.33027 15.0267 8.33329C11.3867 8.33329 8.42 11.3 8.42 14.94C8.42 16.1066 8.72667 17.24 9.3 18.24L8.36667 21.6666L11.8667 20.7466C12.8333 21.2733 13.92 21.5533 15.0267 21.5533C18.6667 21.5533 21.6333 18.5866 21.6333 14.9466C21.6333 13.18 20.9467 11.52 19.7 10.2733ZM15.0267 20.4333C14.04 20.4333 13.0733 20.1666 12.2267 19.6666L12.0267 19.5466L9.94667 20.0933L10.5 18.0666L10.3667 17.86C9.8185 16.9846 9.52743 15.9728 9.52667 14.94C9.52667 11.9133 11.9933 9.44663 15.02 9.44663C16.4867 9.44663 17.8667 10.02 18.9 11.06C19.4117 11.5693 19.8171 12.1751 20.0929 12.8422C20.3687 13.5094 20.5094 14.2247 20.5067 14.9466C20.52 17.9733 18.0533 20.4333 15.0267 20.4333ZM18.04 16.3266C17.8733 16.2466 17.06 15.8466 16.9133 15.7866C16.76 15.7333 16.6533 15.7066 16.54 15.8666C16.4267 16.0333 16.1133 16.4066 16.02 16.5133C15.9267 16.6266 15.8267 16.64 15.66 16.5533C15.4933 16.4733 14.96 16.2933 14.3333 15.7333C13.84 15.2933 13.5133 14.7533 13.4133 14.5866C13.32 14.42 13.4 14.3333 13.4867 14.2466C13.56 14.1733 13.6533 14.0533 13.7333 13.96C13.8133 13.8666 13.8467 13.7933 13.9 13.6866C13.9533 13.5733 13.9267 13.48 13.8867 13.4C13.8467 13.32 13.5133 12.5066 13.38 12.1733C13.2467 11.8533 13.1067 11.8933 13.0067 11.8866H12.6867C12.5733 11.8866 12.4 11.9266 12.2467 12.0933C12.1 12.26 11.6733 12.66 11.6733 13.4733C11.6733 14.2866 12.2667 15.0733 12.3467 15.18C12.4267 15.2933 13.5133 16.96 15.1667 17.6733C15.56 17.8466 15.8667 17.9466 16.1067 18.02C16.5 18.1466 16.86 18.1266 17.1467 18.0866C17.4667 18.04 18.1267 17.6866 18.26 17.3C18.4 16.9133 18.4 16.5866 18.3533 16.5133C18.3067 16.44 18.2067 16.4066 18.04 16.3266Z" fill="#3A59FF"/>
</svg>
