<svg width="30" height="30" viewBox="0 0 30 30" fill="none" xmlns="http://www.w3.org/2000/svg">
<circle cx="15" cy="15" r="15" fill="#3A59FF"/>
<path d="M19.7 10.2733C19.0888 9.65595 18.3608 9.16645 17.5584 8.83337C16.756 8.50029 15.8954 8.33031 15.0266 8.33333C11.3866 8.33333 8.41997 11.3 8.41997 14.94C8.41997 16.1067 8.72664 17.24 9.29997 18.24L8.36664 21.6667L11.8666 20.7467C12.8333 21.2733 13.92 21.5533 15.0266 21.5533C18.6666 21.5533 21.6333 18.5867 21.6333 14.9467C21.6333 13.18 20.9466 11.52 19.7 10.2733ZM15.0266 20.4333C14.04 20.4333 13.0733 20.1667 12.2266 19.6667L12.0266 19.5467L9.94664 20.0933L10.5 18.0667L10.3666 17.86C9.81847 16.9846 9.5274 15.9728 9.52664 14.94C9.52664 11.9133 11.9933 9.44667 15.02 9.44667C16.4866 9.44667 17.8666 10.02 18.9 11.06C19.4116 11.5693 19.8171 12.1751 20.0929 12.8423C20.3687 13.5095 20.5093 14.2247 20.5066 14.9467C20.52 17.9733 18.0533 20.4333 15.0266 20.4333ZM18.04 16.3267C17.8733 16.2467 17.06 15.8467 16.9133 15.7867C16.76 15.7333 16.6533 15.7067 16.54 15.8667C16.4266 16.0333 16.1133 16.4067 16.02 16.5133C15.9266 16.6267 15.8266 16.64 15.66 16.5533C15.4933 16.4733 14.96 16.2933 14.3333 15.7333C13.84 15.2933 13.5133 14.7533 13.4133 14.5867C13.32 14.42 13.4 14.3333 13.4866 14.2467C13.56 14.1733 13.6533 14.0533 13.7333 13.96C13.8133 13.8667 13.8466 13.7933 13.9 13.6867C13.9533 13.5733 13.9266 13.48 13.8866 13.4C13.8466 13.32 13.5133 12.5067 13.38 12.1733C13.2466 11.8533 13.1066 11.8933 13.0066 11.8867H12.6866C12.5733 11.8867 12.4 11.9267 12.2466 12.0933C12.1 12.26 11.6733 12.66 11.6733 13.4733C11.6733 14.2867 12.2666 15.0733 12.3466 15.18C12.4266 15.2933 13.5133 16.96 15.1666 17.6733C15.56 17.8467 15.8666 17.9467 16.1066 18.02C16.5 18.1467 16.86 18.1267 17.1466 18.0867C17.4666 18.04 18.1266 17.6867 18.26 17.3C18.4 16.9133 18.4 16.5867 18.3533 16.5133C18.3066 16.44 18.2066 16.4067 18.04 16.3267Z" fill="white"/>
</svg>
